<?xml version="1.0" encoding="utf-8"?>
<!-- Generator: Adobe Illustrator 26.1.0, SVG Export Plug-In . SVG Version: 6.00 Build 0)  -->
<svg version="1.1" id="Layer_1" xmlns="http://www.w3.org/2000/svg" xmlns:xlink="http://www.w3.org/1999/xlink" x="0px" y="0px"
	 viewBox="0 0 16 16" style="enable-background:new 0 0 16 16;" xml:space="preserve">
<style type="text/css">
	.st0{fill:none;}
	.st1{fill:#828282;}
</style>
<path class="st0" d="M15.8,8.2c0,4.2-3.5,7.8-7.9,7.8s-7.7-3.4-7.7-7.6S3.7,0.5,8,0.5S15.8,4,15.8,8.2z"/>
<path class="st1" d="M8,0.4c-4.3,0-7.8,3.5-7.8,7.8c0,3.4,2.2,6.3,5.3,7.4c0.4,0.1,0.5-0.2,0.5-0.4c0-0.2,0-0.7,0-1.3
	c-2.2,0.5-2.6-1-2.6-1c-0.4-0.9-0.9-1.1-0.9-1.1c-0.7-0.5,0.1-0.5,0.1-0.5C3.4,11.3,3.8,12,3.8,12c0.7,1.2,1.8,0.8,2.3,0.6
	c0.1-0.5,0.3-0.8,0.5-1C4.9,11.4,3,10.8,3,7.8c0-0.8,0.3-1.5,0.8-2.1c-0.1-0.2-0.3-1,0.1-2.1c0,0,0.7-0.2,2.1,0.8
	C6.7,4.3,7.3,4.2,8,4.2c0.7,0,1.3,0.1,1.9,0.3c1.5-1,2.1-0.8,2.1-0.8c0.4,1.1,0.2,1.9,0.1,2.1c0.5,0.5,0.8,1.2,0.8,2.1
	c0,3-1.8,3.6-3.5,3.8c0.3,0.2,0.5,0.7,0.5,1.4c0,1,0,1.9,0,2.1c0,0.2,0.1,0.4,0.5,0.4c3.1-1,5.3-3.9,5.3-7.4
	C15.8,3.9,12.3,0.4,8,0.4z"/>
</svg>
